<svg xmlns="http://www.w3.org/2000/svg" xmlns:xlink="http://www.w3.org/1999/xlink" width="1080" zoomAndPan="magnify" viewBox="0 0 810 809.999993" height="1080" preserveAspectRatio="xMidYMid meet" version="1.0"><defs><filter x="0%" y="0%" width="100%" height="100%" id="333c569c5a"><feColorMatrix values="0 0 0 0 1 0 0 0 0 1 0 0 0 0 1 0 0 0 1 0" color-interpolation-filters="sRGB"/></filter><mask id="f765dd51e9"><g filter="url(#333c569c5a)"><rect x="-81" width="972" fill="#000000" y="-80.999999" height="971.999992" fill-opacity="0.63"/></g></mask><clipPath id="6493cf243f"><path d="M 0.851562 1.054688 L 146.351562 1.054688 L 146.351562 163.804688 L 0.851562 163.804688 Z M 0.851562 1.054688 " clip-rule="nonzero"/></clipPath><clipPath id="583c87bbf1"><rect x="0" width="147" y="0" height="165"/></clipPath><mask id="024167a981"><g filter="url(#333c569c5a)"><rect x="-81" width="972" fill="#000000" y="-80.999999" height="971.999992" fill-opacity="0.63"/></g></mask><clipPath id="075b300757"><path d="M 0.425781 1.054688 L 145.925781 1.054688 L 145.925781 163.804688 L 0.425781 163.804688 Z M 0.425781 1.054688 " clip-rule="nonzero"/></clipPath><clipPath id="8a0d47f677"><rect x="0" width="147" y="0" height="165"/></clipPath><clipPath id="9331b52976"><path d="M 405 191.242188 L 550.5 191.242188 L 550.5 353.992188 L 405 353.992188 Z M 405 191.242188 " clip-rule="nonzero"/></clipPath><clipPath id="589eab76e0"><path d="M 477.574219 272.703125 L 623.074219 272.703125 L 623.074219 435.453125 L 477.574219 435.453125 Z M 477.574219 272.703125 " clip-rule="nonzero"/></clipPath><clipPath id="a5c865032d"><path d="M 550.152344 354.167969 L 695.652344 354.167969 L 695.652344 516.917969 L 550.152344 516.917969 Z M 550.152344 354.167969 " clip-rule="nonzero"/></clipPath><mask id="88ff2f59c9"><g filter="url(#333c569c5a)"><rect x="-81" width="972" fill="#000000" y="-80.999999" height="971.999992" fill-opacity="0.66"/></g></mask><clipPath id="5f00c67421"><path d="M 0.726562 0.628906 L 146.226562 0.628906 L 146.226562 163.378906 L 0.726562 163.378906 Z M 0.726562 0.628906 " clip-rule="nonzero"/></clipPath><clipPath id="f889007cb8"><rect x="0" width="147" y="0" height="165"/></clipPath><mask id="12b30bebbd"><g filter="url(#333c569c5a)"><rect x="-81" width="972" fill="#000000" y="-80.999999" height="971.999992" fill-opacity="0.66"/></g></mask><clipPath id="e84d50f3af"><path d="M 0.425781 0.550781 L 145.925781 0.550781 L 145.925781 163.300781 L 0.425781 163.300781 Z M 0.425781 0.550781 " clip-rule="nonzero"/></clipPath><clipPath id="6909cc7c2b"><rect x="0" width="147" y="0" height="165"/></clipPath><mask id="3bc0803c3f"><g filter="url(#333c569c5a)"><rect x="-81" width="972" fill="#000000" y="-80.999999" height="971.999992" fill-opacity="0.91"/></g></mask><clipPath id="cead2466ae"><path d="M 1.136719 0.375 L 146.636719 0.375 L 146.636719 163.125 L 1.136719 163.125 Z M 1.136719 0.375 " clip-rule="nonzero"/></clipPath><clipPath id="42aa78398d"><rect x="0" width="147" y="0" height="164"/></clipPath><clipPath id="756ba459e1"><path d="M 187.273438 303.550781 L 332.773438 303.550781 L 332.773438 466.300781 L 187.273438 466.300781 Z M 187.273438 303.550781 " clip-rule="nonzero"/></clipPath><mask id="8ec15afce3"><g filter="url(#333c569c5a)"><rect x="-81" width="972" fill="#000000" y="-80.999999" height="971.999992" fill-opacity="0.83"/></g></mask><clipPath id="c0bb6703b9"><path d="M 0.699219 1.046875 L 146.199219 1.046875 L 146.199219 163.796875 L 0.699219 163.796875 Z M 0.699219 1.046875 " clip-rule="nonzero"/></clipPath><clipPath id="73e41c45e5"><rect x="0" width="147" y="0" height="165"/></clipPath><mask id="7072f12210"><g filter="url(#333c569c5a)"><rect x="-81" width="972" fill="#000000" y="-80.999999" height="971.999992" fill-opacity="0.72"/></g></mask><clipPath id="9ec2596e6a"><path d="M 0.125 0.542969 L 145.625 0.542969 L 145.625 163.292969 L 0.125 163.292969 Z M 0.125 0.542969 " clip-rule="nonzero"/></clipPath><clipPath id="aff0d60e03"><rect x="0" width="146" y="0" height="165"/></clipPath><clipPath id="35ad86b66f"><path d="M 259.851562 354.167969 L 405.351562 354.167969 L 405.351562 516.917969 L 259.851562 516.917969 Z M 259.851562 354.167969 " clip-rule="nonzero"/></clipPath><clipPath id="112d87aa29"><path d="M 332.425781 406.976562 L 477.925781 406.976562 L 477.925781 569.726562 L 332.425781 569.726562 Z M 332.425781 406.976562 " clip-rule="nonzero"/></clipPath><mask id="be227d080c"><g filter="url(#333c569c5a)"><rect x="-81" width="972" fill="#000000" y="-80.999999" height="971.999992" fill-opacity="0.89"/></g></mask><clipPath id="ff051e2c18"><path d="M 0.0585938 1.011719 L 145.558594 1.011719 L 145.558594 163.761719 L 0.0585938 163.761719 Z M 0.0585938 1.011719 " clip-rule="nonzero"/></clipPath><clipPath id="dce9097ed9"><rect x="0" width="146" y="0" height="165"/></clipPath><mask id="f2edacaf20"><g filter="url(#333c569c5a)"><rect x="-81" width="972" fill="#000000" y="-80.999999" height="971.999992" fill-opacity="0.89"/></g></mask><clipPath id="760cc5abd4"><path d="M 0.574219 0.472656 L 146.074219 0.472656 L 146.074219 163.222656 L 0.574219 163.222656 Z M 0.574219 0.472656 " clip-rule="nonzero"/></clipPath><clipPath id="e375ccbe49"><rect x="0" width="147" y="0" height="164"/></clipPath><mask id="61c79d3d7a"><g filter="url(#333c569c5a)"><rect x="-81" width="972" fill="#000000" y="-80.999999" height="971.999992" fill-opacity="0.89"/></g></mask><clipPath id="bfd26501c9"><path d="M 0.152344 0.00390625 L 145.652344 0.00390625 L 145.652344 162.753906 L 0.152344 162.753906 Z M 0.152344 0.00390625 " clip-rule="nonzero"/></clipPath><clipPath id="5450add7c7"><rect x="0" width="146" y="0" height="164"/></clipPath></defs><g mask="url(#f765dd51e9)"><g transform="matrix(1, 0, 0, 1, 259, 243)"><g clip-path="url(#583c87bbf1)"><path fill="#f9f9f9" d="M 73.597656 2.820312 L 2.75 38.125 L 73.597656 73.425781 L 144.449219 38.125 Z M 73.597656 2.820312 " fill-opacity="1" fill-rule="nonzero"/><path fill="#ececec" d="M 73.597656 73.425781 L 73.597656 161.6875 L 144.449219 126.382812 L 144.449219 38.121094 Z M 73.597656 73.425781 " fill-opacity="1" fill-rule="nonzero"/><path fill="#cccccc" d="M 73.597656 73.425781 L 73.597656 161.6875 L 2.75 126.382812 L 2.75 38.121094 Z M 73.597656 73.425781 " fill-opacity="1" fill-rule="nonzero"/><g clip-path="url(#6493cf243f)"><path stroke-linecap="butt" transform="matrix(3.542487, 0, 0, 3.530369, -32.674998, -5.519582)" fill="none" stroke-linejoin="miter" d="M 29.999449 2.374501 L 10.000037 12.374784 L 10.000037 37.375493 L 29.999449 47.37467 L 49.999965 37.375493 L 49.999965 12.374784 Z M 29.999449 2.374501 " stroke="#4d4d4d" stroke-width="1" stroke-opacity="1" stroke-miterlimit="4"/></g></g></g></g><g mask="url(#024167a981)"><g transform="matrix(1, 0, 0, 1, 332, 243)"><g clip-path="url(#8a0d47f677)"><path fill="#f9f9f9" d="M 73.175781 2.820312 L 2.324219 38.125 L 73.175781 73.425781 L 144.023438 38.125 Z M 73.175781 2.820312 " fill-opacity="1" fill-rule="nonzero"/><path fill="#ececec" d="M 73.175781 73.425781 L 73.175781 161.6875 L 144.023438 126.382812 L 144.023438 38.121094 Z M 73.175781 73.425781 " fill-opacity="1" fill-rule="nonzero"/><path fill="#cccccc" d="M 73.175781 73.425781 L 73.175781 161.6875 L 2.324219 126.382812 L 2.324219 38.121094 Z M 73.175781 73.425781 " fill-opacity="1" fill-rule="nonzero"/><g clip-path="url(#075b300757)"><path stroke-linecap="butt" transform="matrix(3.542487, 0, 0, 3.530369, -33.099846, -5.519582)" fill="none" stroke-linejoin="miter" d="M 30.000288 2.374501 L 9.999773 12.374784 L 9.999773 37.375493 L 30.000288 47.37467 L 49.999701 37.375493 L 49.999701 12.374784 Z M 30.000288 2.374501 " stroke="#4d4d4d" stroke-width="1" stroke-opacity="1" stroke-miterlimit="4"/></g></g></g></g><path fill="#f9f9f9" d="M 477.75 193.007812 L 406.898438 228.3125 L 477.75 263.617188 L 548.601562 228.3125 Z M 477.75 193.007812 " fill-opacity="1" fill-rule="nonzero"/><path fill="#ececec" d="M 477.75 263.617188 L 477.75 351.875 L 548.601562 316.570312 L 548.601562 228.3125 Z M 477.75 263.617188 " fill-opacity="1" fill-rule="nonzero"/><path fill="#cccccc" d="M 477.75 263.617188 L 477.75 351.875 L 406.898438 316.570312 L 406.898438 228.3125 Z M 477.75 263.617188 " fill-opacity="1" fill-rule="nonzero"/><g clip-path="url(#9331b52976)"><path stroke-linecap="butt" transform="matrix(3.542487, 0, 0, 3.530369, 371.475366, 184.669273)" fill="none" stroke-linejoin="miter" d="M 30.000008 2.375223 L 9.999493 12.375507 L 9.999493 37.375109 L 30.000008 47.375392 L 50.000523 37.375109 L 50.000523 12.375507 Z M 30.000008 2.375223 " stroke="#4d4d4d" stroke-width="1" stroke-opacity="1" stroke-miterlimit="4"/></g><path fill="#f9f9f9" d="M 550.324219 274.46875 L 479.476562 309.773438 L 550.324219 345.078125 L 621.175781 309.773438 Z M 550.324219 274.46875 " fill-opacity="1" fill-rule="nonzero"/><path fill="#ececec" d="M 550.324219 345.078125 L 550.324219 433.335938 L 621.175781 398.03125 L 621.175781 309.773438 Z M 550.324219 345.078125 " fill-opacity="1" fill-rule="nonzero"/><path fill="#cccccc" d="M 550.324219 345.078125 L 550.324219 433.335938 L 479.476562 398.03125 L 479.476562 309.773438 Z M 550.324219 345.078125 " fill-opacity="1" fill-rule="nonzero"/><g clip-path="url(#589eab76e0)"><path stroke-linecap="butt" transform="matrix(3.542487, 0, 0, 3.530369, 444.050549, 266.131238)" fill="none" stroke-linejoin="miter" d="M 29.999736 2.374932 L 10.000323 12.375216 L 10.000323 37.374818 L 29.999736 47.375101 L 50.000251 37.374818 L 50.000251 12.375216 Z M 29.999736 2.374932 " stroke="#4d4d4d" stroke-width="1" stroke-opacity="1" stroke-miterlimit="4"/></g><path fill="#f9f9f9" d="M 622.902344 355.933594 L 552.050781 391.234375 L 622.902344 426.539062 L 693.75 391.234375 Z M 622.902344 355.933594 " fill-opacity="1" fill-rule="nonzero"/><path fill="#ececec" d="M 622.902344 426.539062 L 622.902344 514.796875 L 693.75 479.496094 L 693.75 391.234375 Z M 622.902344 426.539062 " fill-opacity="1" fill-rule="nonzero"/><path fill="#cccccc" d="M 622.902344 426.539062 L 622.902344 514.796875 L 552.050781 479.496094 L 552.050781 391.234375 Z M 622.902344 426.539062 " fill-opacity="1" fill-rule="nonzero"/><g clip-path="url(#a5c865032d)"><path stroke-linecap="butt" transform="matrix(3.542487, 0, 0, 3.530369, 516.625826, 347.593186)" fill="none" stroke-linejoin="miter" d="M 30.00054 2.374646 L 10.000025 12.37493 L 10.000025 37.374532 L 30.00054 47.374815 L 49.999953 37.374532 L 49.999953 12.37493 Z M 30.00054 2.374646 " stroke="#4d4d4d" stroke-width="1" stroke-opacity="1" stroke-miterlimit="4"/></g><g mask="url(#88ff2f59c9)"><g transform="matrix(1, 0, 0, 1, 622, 435)"><g clip-path="url(#f889007cb8)"><path fill="#f9f9f9" d="M 73.476562 2.394531 L 2.625 37.699219 L 73.476562 73 L 144.324219 37.699219 Z M 73.476562 2.394531 " fill-opacity="1" fill-rule="nonzero"/><path fill="#ececec" d="M 73.476562 73 L 73.476562 161.261719 L 144.324219 125.957031 L 144.324219 37.699219 Z M 73.476562 73 " fill-opacity="1" fill-rule="nonzero"/><path fill="#cccccc" d="M 73.476562 73 L 73.476562 161.261719 L 2.625 125.957031 L 2.625 37.699219 Z M 73.476562 73 " fill-opacity="1" fill-rule="nonzero"/><g clip-path="url(#5f00c67421)"><path stroke-linecap="butt" transform="matrix(3.542487, 0, 0, 3.530369, -32.79903, -5.944894)" fill="none" stroke-linejoin="miter" d="M 30.000279 2.375474 L 9.999763 12.374651 L 9.999763 37.37536 L 30.000279 47.374537 L 49.999691 37.37536 L 49.999691 12.374651 Z M 30.000279 2.375474 " stroke="#4d4d4d" stroke-width="1" stroke-opacity="1" stroke-miterlimit="4"/></g></g></g></g><g mask="url(#12b30bebbd)"><g transform="matrix(1, 0, 0, 1, 332, 303)"><g clip-path="url(#6909cc7c2b)"><path fill="#f9f9f9" d="M 73.175781 2.316406 L 2.324219 37.621094 L 73.175781 72.921875 L 144.023438 37.621094 Z M 73.175781 2.316406 " fill-opacity="1" fill-rule="nonzero"/><path fill="#ececec" d="M 73.175781 72.921875 L 73.175781 161.183594 L 144.023438 125.878906 L 144.023438 37.617188 Z M 73.175781 72.921875 " fill-opacity="1" fill-rule="nonzero"/><path fill="#cccccc" d="M 73.175781 72.921875 L 73.175781 161.183594 L 2.324219 125.878906 L 2.324219 37.617188 Z M 73.175781 72.921875 " fill-opacity="1" fill-rule="nonzero"/><g clip-path="url(#e84d50f3af)"><path stroke-linecap="butt" transform="matrix(3.542487, 0, 0, 3.530369, -33.099846, -6.023638)" fill="none" stroke-linejoin="miter" d="M 30.000288 2.374543 L 9.999773 12.374827 L 9.999773 37.375535 L 30.000288 47.374712 L 49.999701 37.375535 L 49.999701 12.374827 Z M 30.000288 2.374543 " stroke="#4d4d4d" stroke-width="1" stroke-opacity="1" stroke-miterlimit="4"/></g></g></g></g><g mask="url(#3bc0803c3f)"><g transform="matrix(1, 0, 0, 1, 390, 287)"><g clip-path="url(#42aa78398d)"><path fill="#f9f9f9" d="M 73.886719 2.140625 L 3.035156 37.445312 L 73.886719 72.75 L 144.738281 37.445312 Z M 73.886719 2.140625 " fill-opacity="1" fill-rule="nonzero"/><path fill="#ececec" d="M 73.886719 72.746094 L 73.886719 161.007812 L 144.738281 125.703125 L 144.738281 37.445312 Z M 73.886719 72.746094 " fill-opacity="1" fill-rule="nonzero"/><path fill="#cccccc" d="M 73.886719 72.746094 L 73.886719 161.007812 L 3.035156 125.703125 L 3.035156 37.445312 Z M 73.886719 72.746094 " fill-opacity="1" fill-rule="nonzero"/><g clip-path="url(#cead2466ae)"><path stroke-linecap="butt" transform="matrix(3.542487, 0, 0, 3.530369, -32.387768, -6.198441)" fill="none" stroke-linejoin="miter" d="M 29.999967 2.375373 L 9.999451 12.37455 L 9.999451 37.375258 L 29.999967 47.375542 L 50.000482 37.375258 L 50.000482 12.37455 Z M 29.999967 2.375373 " stroke="#4d4d4d" stroke-width="1" stroke-opacity="1" stroke-miterlimit="4"/></g></g></g></g><path fill="#f9f9f9" d="M 260.023438 305.316406 L 189.175781 340.621094 L 260.023438 375.921875 L 330.875 340.621094 Z M 260.023438 305.316406 " fill-opacity="1" fill-rule="nonzero"/><path fill="#ececec" d="M 260.023438 375.921875 L 260.023438 464.183594 L 330.875 428.878906 L 330.875 340.617188 Z M 260.023438 375.921875 " fill-opacity="1" fill-rule="nonzero"/><path fill="#cccccc" d="M 260.023438 375.921875 L 260.023438 464.183594 L 189.175781 428.878906 L 189.175781 340.617188 Z M 260.023438 375.921875 " fill-opacity="1" fill-rule="nonzero"/><g clip-path="url(#756ba459e1)"><path stroke-linecap="butt" transform="matrix(3.542487, 0, 0, 3.530369, 153.749806, 296.976363)" fill="none" stroke-linejoin="miter" d="M 29.999725 2.374543 L 10.000312 12.374826 L 10.000312 37.375535 L 29.999725 47.374712 L 50.00024 37.375535 L 50.00024 12.374826 Z M 29.999725 2.374543 " stroke="#4d4d4d" stroke-width="1" stroke-opacity="1" stroke-miterlimit="4"/></g><g mask="url(#8ec15afce3)"><g transform="matrix(1, 0, 0, 1, 114, 362)"><g clip-path="url(#73e41c45e5)"><path fill="#f9f9f9" d="M 73.449219 2.8125 L 2.597656 38.117188 L 73.449219 73.417969 L 144.300781 38.117188 Z M 73.449219 2.8125 " fill-opacity="1" fill-rule="nonzero"/><path fill="#ececec" d="M 73.449219 73.417969 L 73.449219 161.675781 L 144.300781 126.375 L 144.300781 38.113281 Z M 73.449219 73.417969 " fill-opacity="1" fill-rule="nonzero"/><path fill="#cccccc" d="M 73.449219 73.417969 L 73.449219 161.675781 L 2.597656 126.375 L 2.597656 38.113281 Z M 73.449219 73.417969 " fill-opacity="1" fill-rule="nonzero"/><g clip-path="url(#c0bb6703b9)"><path stroke-linecap="butt" transform="matrix(3.542487, 0, 0, 3.530369, -32.825377, -5.527723)" fill="none" stroke-linejoin="miter" d="M 29.999997 2.374594 L 9.999482 12.374877 L 9.999482 37.374479 L 29.999997 47.374763 L 50.000513 37.374479 L 50.000513 12.374877 Z M 29.999997 2.374594 " stroke="#4d4d4d" stroke-width="1" stroke-opacity="1" stroke-miterlimit="4"/></g></g></g></g><g mask="url(#7072f12210)"><g transform="matrix(1, 0, 0, 1, 42, 422)"><g clip-path="url(#aff0d60e03)"><path fill="#f9f9f9" d="M 72.875 2.308594 L 2.023438 37.609375 L 72.875 72.914062 L 143.722656 37.609375 Z M 72.875 2.308594 " fill-opacity="1" fill-rule="nonzero"/><path fill="#ececec" d="M 72.875 72.914062 L 72.875 161.171875 L 143.722656 125.871094 L 143.722656 37.609375 Z M 72.875 72.914062 " fill-opacity="1" fill-rule="nonzero"/><path fill="#cccccc" d="M 72.875 72.914062 L 72.875 161.171875 L 2.023438 125.871094 L 2.023438 37.609375 Z M 72.875 72.914062 " fill-opacity="1" fill-rule="nonzero"/><g clip-path="url(#9ec2596e6a)"><path stroke-linecap="butt" transform="matrix(3.542487, 0, 0, 3.530369, -33.400577, -6.031807)" fill="none" stroke-linejoin="miter" d="M 30.000274 2.374644 L 9.999759 12.374928 L 9.999759 37.37453 L 30.000274 47.374813 L 49.999687 37.37453 L 49.999687 12.374928 Z M 30.000274 2.374644 " stroke="#4d4d4d" stroke-width="1" stroke-opacity="1" stroke-miterlimit="4"/></g></g></g></g><path fill="#f9f9f9" d="M 332.597656 355.933594 L 261.75 391.234375 L 332.597656 426.539062 L 403.449219 391.234375 Z M 332.597656 355.933594 " fill-opacity="1" fill-rule="nonzero"/><path fill="#ececec" d="M 332.597656 426.539062 L 332.597656 514.796875 L 403.449219 479.496094 L 403.449219 391.234375 Z M 332.597656 426.539062 " fill-opacity="1" fill-rule="nonzero"/><path fill="#cccccc" d="M 332.597656 426.539062 L 332.597656 514.796875 L 261.75 479.496094 L 261.75 391.234375 Z M 332.597656 426.539062 " fill-opacity="1" fill-rule="nonzero"/><g clip-path="url(#35ad86b66f)"><path stroke-linecap="butt" transform="matrix(3.542487, 0, 0, 3.530369, 226.325001, 347.593186)" fill="none" stroke-linejoin="miter" d="M 29.99945 2.374646 L 10.000037 12.37493 L 10.000037 37.374532 L 29.99945 47.374815 L 49.999965 37.374532 L 49.999965 12.37493 Z M 29.99945 2.374646 " stroke="#4d4d4d" stroke-width="1" stroke-opacity="1" stroke-miterlimit="4"/></g><path fill="#f9f9f9" d="M 405.175781 408.742188 L 334.324219 444.046875 L 405.175781 479.351562 L 476.023438 444.046875 Z M 405.175781 408.742188 " fill-opacity="1" fill-rule="nonzero"/><path fill="#ececec" d="M 405.175781 479.351562 L 405.175781 567.609375 L 476.023438 532.304688 L 476.023438 444.046875 Z M 405.175781 479.351562 " fill-opacity="1" fill-rule="nonzero"/><path fill="#cccccc" d="M 405.175781 479.351562 L 405.175781 567.609375 L 334.324219 532.304688 L 334.324219 444.046875 Z M 405.175781 479.351562 " fill-opacity="1" fill-rule="nonzero"/><g clip-path="url(#112d87aa29)"><path stroke-linecap="butt" transform="matrix(3.542487, 0, 0, 3.530369, 298.900155, 400.404317)" fill="none" stroke-linejoin="miter" d="M 30.000288 2.375034 L 9.999773 12.375317 L 9.999773 37.37492 L 30.000288 47.375203 L 49.999701 37.37492 L 49.999701 12.375317 Z M 30.000288 2.375034 " stroke="#4d4d4d" stroke-width="1" stroke-opacity="1" stroke-miterlimit="4"/></g><g mask="url(#be227d080c)"><g transform="matrix(1, 0, 0, 1, 414, 384)"><g clip-path="url(#dce9097ed9)"><path fill="#f9f9f9" d="M 72.808594 2.777344 L 1.957031 38.082031 L 72.808594 73.386719 L 143.65625 38.082031 Z M 72.808594 2.777344 " fill-opacity="1" fill-rule="nonzero"/><path fill="#ececec" d="M 72.808594 73.382812 L 72.808594 161.644531 L 143.65625 126.339844 L 143.65625 38.082031 Z M 72.808594 73.382812 " fill-opacity="1" fill-rule="nonzero"/><path fill="#cccccc" d="M 72.808594 73.382812 L 72.808594 161.644531 L 1.957031 126.339844 L 1.957031 38.082031 Z M 72.808594 73.382812 " fill-opacity="1" fill-rule="nonzero"/><g clip-path="url(#ff051e2c18)"><path stroke-linecap="butt" transform="matrix(3.542487, 0, 0, 3.530369, -33.467154, -5.561688)" fill="none" stroke-linejoin="miter" d="M 30.000323 2.375363 L 9.999807 12.37454 L 9.999807 37.375248 L 30.000323 47.375532 L 49.999735 37.375248 L 49.999735 12.37454 Z M 30.000323 2.375363 " stroke="#4d4d4d" stroke-width="1" stroke-opacity="1" stroke-miterlimit="4"/></g></g></g></g><g mask="url(#f2edacaf20)"><g transform="matrix(1, 0, 0, 1, 477, 466)"><g clip-path="url(#e375ccbe49)"><path fill="#f9f9f9" d="M 73.324219 2.238281 L 2.476562 37.542969 L 73.324219 72.847656 L 144.175781 37.542969 Z M 73.324219 2.238281 " fill-opacity="1" fill-rule="nonzero"/><path fill="#ececec" d="M 73.324219 72.847656 L 73.324219 161.105469 L 144.175781 125.800781 L 144.175781 37.542969 Z M 73.324219 72.847656 " fill-opacity="1" fill-rule="nonzero"/><path fill="#cccccc" d="M 73.324219 72.847656 L 73.324219 161.105469 L 2.476562 125.800781 L 2.476562 37.542969 Z M 73.324219 72.847656 " fill-opacity="1" fill-rule="nonzero"/><g clip-path="url(#760cc5abd4)"><path stroke-linecap="butt" transform="matrix(3.542487, 0, 0, 3.530369, -32.949453, -6.099769)" fill="none" stroke-linejoin="miter" d="M 29.999736 2.375085 L 10.000324 12.375368 L 10.000324 37.37497 L 29.999736 47.375254 L 50.000252 37.37497 L 50.000252 12.375368 Z M 29.999736 2.375085 " stroke="#4d4d4d" stroke-width="1" stroke-opacity="1" stroke-miterlimit="4"/></g></g></g></g><g mask="url(#61c79d3d7a)"><g transform="matrix(1, 0, 0, 1, 550, 504)"><g clip-path="url(#5450add7c7)"><path fill="#f9f9f9" d="M 72.902344 1.769531 L 2.050781 37.074219 L 72.902344 72.375 L 143.75 37.074219 Z M 72.902344 1.769531 " fill-opacity="1" fill-rule="nonzero"/><path fill="#ececec" d="M 72.902344 72.375 L 72.902344 160.636719 L 143.75 125.332031 L 143.75 37.074219 Z M 72.902344 72.375 " fill-opacity="1" fill-rule="nonzero"/><path fill="#cccccc" d="M 72.902344 72.375 L 72.902344 160.636719 L 2.050781 125.332031 L 2.050781 37.074219 Z M 72.902344 72.375 " fill-opacity="1" fill-rule="nonzero"/><g clip-path="url(#bfd26501c9)"><path stroke-linecap="butt" transform="matrix(3.542487, 0, 0, 3.530369, -33.374183, -6.569888)" fill="none" stroke-linejoin="miter" d="M 30.000542 2.375473 L 10.000027 12.37465 L 10.000027 37.375358 L 30.000542 47.374535 L 49.999955 37.375358 L 49.999955 12.37465 Z M 30.000542 2.375473 " stroke="#4d4d4d" stroke-width="1" stroke-opacity="1" stroke-miterlimit="4"/></g></g></g></g></svg>